<?xml version="1.0" standalone="no"?>
<!DOCTYPE svg PUBLIC "-//W3C//DTD SVG 20010904//EN"
 "http://www.w3.org/TR/2001/REC-SVG-20010904/DTD/svg10.dtd">
<svg version="1.0" xmlns="http://www.w3.org/2000/svg"
 width="1186.000000pt" height="1536.000000pt" viewBox="0 0 1186.000000 1536.000000"
 preserveAspectRatio="xMidYMid meet">

<g transform="translate(0.000000,1536.000000) scale(0.100000,-0.100000)"
fill="#000000" stroke="none">
<path d="M5600 14726 c0 -2 13 -6 29 -8 17 -2 28 -1 25 4 -5 8 -54 12 -54 4z"/>
<path d="M5690 14690 c0 -15 47 -42 67 -37 15 3 13 6 -9 15 -14 6 -29 16 -33
21 -8 14 -25 14 -25 1z"/>
<path d="M5567 14678 c-9 -7 -21 -25 -26 -40 -8 -21 -17 -28 -38 -28 -44 0
-185 -37 -244 -63 -112 -50 -206 -148 -240 -252 -17 -50 -17 -50 -91 -75 -40
-14 -79 -29 -86 -33 -20 -13 -13 -59 16 -112 l27 -50 55 0 c54 0 54 0 62 -35
4 -19 35 -177 69 -350 33 -173 78 -403 99 -510 21 -107 41 -213 45 -234 l6
-39 -153 7 c-84 3 -187 9 -229 12 l-77 7 -11 38 c-47 156 -261 188 -355 52
-41 -59 -48 -159 -14 -222 36 -69 86 -104 158 -109 80 -6 104 2 156 50 l45 41
203 -22 c112 -12 295 -26 407 -32 112 -6 210 -13 218 -15 12 -4 13 -55 7 -317
-3 -171 -9 -368 -11 -437 -3 -69 -10 -350 -15 -625 -10 -468 -16 -625 -26
-625 -2 0 -48 17 -101 39 -121 47 -358 133 -435 157 -52 16 -58 21 -58 45 0
14 11 201 25 414 14 214 25 397 23 408 -4 26 -224 102 -245 85 -8 -6 -34 -39
-60 -74 -26 -35 -48 -62 -50 -60 -2 2 2 26 8 55 6 28 9 58 6 65 -4 10 -32 14
-105 15 l-99 2 -128 -168 c-70 -92 -207 -273 -304 -400 l-176 -233 -110 0
c-300 0 -698 -31 -975 -76 -309 -50 -911 -183 -867 -192 22 -4 22 -22 0 -22
-47 0 14 -13 213 -45 120 -19 273 -44 339 -55 66 -10 167 -26 225 -35 58 -9
170 -27 250 -40 80 -13 166 -26 192 -30 94 -12 101 -54 24 -131 -63 -63 -116
-160 -146 -264 -25 -92 -29 -244 -7 -308 l15 -43 -68 -122 c-37 -67 -208 -376
-380 -687 -172 -311 -364 -657 -426 -770 -112 -203 -131 -254 -99 -266 10 -4
432 271 1153 752 721 481 1148 759 1167 762 55 7 488 -267 730 -462 133 -107
185 -156 185 -173 0 -7 -16 -45 -35 -84 -82 -161 -193 -457 -231 -614 -25
-105 -33 -261 -15 -308 15 -38 51 -67 85 -67 40 0 119 82 240 249 l89 123 40
-6 c22 -4 44 -9 49 -12 8 -5 6 -210 -7 -609 -3 -82 -9 -350 -15 -595 -5 -245
-12 -519 -15 -610 -3 -91 -10 -361 -15 -600 -5 -239 -12 -507 -15 -595 -6
-155 -15 -590 -35 -1550 -5 -253 -12 -518 -15 -590 -5 -123 -25 -760 -25 -811
0 -24 -2 -24 -93 -24 -77 0 -97 -3 -109 -17 -10 -12 -23 -76 -37 -188 -21
-163 -33 -251 -65 -490 -91 -654 -96 -705 -73 -723 18 -14 215 -59 337 -76
282 -40 517 -26 746 45 53 16 65 24 70 46 4 15 -5 151 -20 302 -108 1115 -104
1075 -127 1094 -16 13 -40 17 -101 17 l-80 0 7 1393 c4 765 8 1393 9 1394 1 1
35 -30 76 -68 297 -279 431 -344 486 -237 46 89 -28 472 -208 1068 -44 146
-82 273 -85 283 -11 37 249 277 472 434 157 111 490 313 516 313 9 0 166 -105
1239 -826 804 -542 1023 -687 1041 -691 13 -4 20 2 25 21 7 31 39 -30 -286
561 -79 143 -207 377 -285 520 -221 405 -314 573 -362 658 l-44 79 17 66 c45
179 -22 415 -158 556 -47 49 -55 62 -48 80 7 20 24 25 152 45 334 53 1114 182
1131 187 26 8 23 62 -5 74 -30 13 -246 60 -478 104 -482 92 -898 136 -1276
136 -151 0 -162 -1 -167 -19 -6 -23 -22 -27 -192 -46 l-120 -14 125 6 c143 7
142 7 470 -7 365 -16 596 -39 930 -96 80 -13 169 -24 198 -24 30 0 63 -6 76
-15 12 -8 69 -22 127 -31 131 -19 153 -26 157 -45 3 -19 -35 -29 -109 -29 -37
0 -49 4 -49 15 0 8 -5 15 -10 15 -6 0 -149 -23 -318 -51 -425 -69 -1290 -211
-1887 -309 -275 -45 -644 -106 -820 -135 -176 -29 -323 -51 -327 -48 -5 2 -8
94 -8 203 0 188 1 200 20 210 16 9 170 63 495 175 44 15 84 31 90 36 5 5 19 9
32 9 32 0 47 32 22 48 -17 11 -19 24 -19 116 0 132 -1 131 145 140 61 4 115
12 120 18 7 7 -27 8 -112 3 l-121 -7 -7 94 c-3 51 -7 180 -8 287 l-2 195 90
23 c50 12 96 21 102 18 7 -2 33 -36 58 -74 53 -81 62 -89 82 -68 13 13 14 25
4 79 -6 36 -11 70 -11 76 0 13 34 15 104 6 l48 -7 136 -184 c76 -102 164 -221
197 -266 44 -60 74 -89 109 -108 51 -28 111 -91 140 -146 9 -18 21 -33 26 -33
16 0 12 10 -20 54 -83 111 -507 690 -544 740 -14 21 -94 34 -203 35 -52 1 -53
1 -53 -29 0 -35 -10 -38 -28 -10 -7 11 -22 20 -34 20 -38 0 -243 -52 -257 -65
-11 -11 -11 -73 3 -402 20 -489 20 -479 -1 -486 -23 -7 -273 -93 -438 -151
-71 -25 -138 -46 -147 -46 -15 0 -18 10 -18 60 0 55 2 61 25 70 39 15 50 56
31 111 -9 26 -16 48 -16 50 0 2 23 4 51 4 60 0 79 19 79 76 0 31 -6 43 -34 64
l-34 26 24 26 c18 19 24 37 24 69 0 53 -31 86 -96 104 l-44 13 0 2028 c0 1116
3 2029 8 2029 110 2 449 25 612 41 204 20 215 20 225 4 44 -75 108 -115 185
-115 174 0 262 201 152 349 -46 62 -158 90 -235 57 -29 -12 -76 -57 -102 -99
-8 -13 -42 -18 -169 -26 -88 -6 -193 -11 -234 -11 l-75 0 6 48 c3 26 29 280
58 565 l53 518 60 -3 60 -3 28 50 c17 30 27 62 26 80 -3 28 -9 32 -83 59 -109
38 -107 37 -120 81 -46 155 -177 280 -342 328 -29 9 -89 21 -134 28 -69 10
-82 15 -89 35 -16 41 -78 58 -113 32z m-73 -650 c3 -29 8 -127 11 -218 3 -91
8 -205 10 -255 3 -49 9 -193 15 -320 5 -126 12 -265 16 -307 l5 -78 -75 0 -74
0 -7 33 c-4 17 -65 281 -136 585 -71 305 -129 560 -129 568 0 7 10 16 23 19
41 9 181 22 259 24 l77 1 5 -52z m459 22 c92 -10 171 -21 175 -24 8 -5 -10
-135 -72 -536 -42 -272 -96 -625 -96 -633 0 -4 -40 -7 -90 -7 l-90 0 0 28 c0
25 -13 348 -24 612 -3 63 -8 210 -11 325 -4 116 -8 220 -11 233 -6 28 -2 28
219 2z m-1648 -2945 c132 -19 312 -46 399 -60 88 -14 161 -25 163 -25 2 0 3
-30 3 -66 l0 -67 -52 6 c-292 31 -878 98 -896 102 -21 5 -19 9 35 80 50 65 61
75 83 70 14 -3 133 -21 265 -40z m-707 -676 c178 -29 320 -55 315 -59 -12 -11
-284 -108 -334 -119 -24 -5 -46 -8 -51 -5 -4 3 -6 23 -4 46 l4 41 -34 -39
c-18 -21 -33 -42 -34 -46 0 -5 -7 -8 -15 -8 -18 0 -39 46 -29 62 4 6 9 24 10
41 3 25 2 27 -11 17 -7 -6 -19 -27 -25 -46 -6 -19 -15 -34 -19 -34 -18 0 -103
103 -121 146 -25 58 -25 65 3 60 12 -3 167 -28 345 -57z m545 -86 c55 -7 66
-21 77 -97 l7 -51 13 63 c21 92 34 84 54 -31 l12 -72 13 65 c19 96 16 92 58
85 21 -3 65 -10 98 -15 33 -5 141 -23 240 -39 99 -16 258 -42 353 -57 94 -15
172 -31 172 -35 0 -5 -33 -30 -72 -56 -40 -26 -741 -492 -1557 -1035 -816
-544 -1485 -987 -1487 -985 -2 2 71 138 162 303 248 446 424 763 451 814 58
104 200 361 239 430 32 57 47 74 61 71 73 -14 123 -12 161 8 111 57 223 232
248 390 6 35 10 41 31 41 22 0 24 -3 19 -22 -61 -210 -40 -393 54 -455 40 -28
106 -30 158 -6 64 30 148 123 191 213 57 117 75 208 68 339 l-5 106 31 23 c24
16 41 20 67 17 19 -3 57 -8 83 -12z m-1027 -174 c-25 -52 -31 -77 -35 -162
l-6 -101 -30 -8 c-18 -4 -34 -3 -40 3 -5 5 -10 44 -10 87 0 81 20 142 71 224
22 34 26 36 52 27 l28 -10 -30 -60z m512 -51 c-36 -95 -40 -125 -36 -215 4
-65 2 -96 -6 -98 -59 -18 -65 -16 -75 22 -17 61 -13 126 14 212 26 81 32 87
84 90 15 1 21 -4 19 -11z m1861 6 c17 -4 31 -13 31 -20 0 -19 -14 -18 -52 6
-35 21 -30 24 21 14z m251 -1238 c0 -54 -45 -98 -195 -190 -112 -69 -120 -75
-106 -89 5 -5 98 -20 205 -32 199 -22 246 -36 246 -72 0 -62 -95 -69 -310 -23
-78 17 -146 28 -151 25 -15 -10 -10 -33 9 -39 9 -3 84 -19 166 -36 157 -33
263 -69 291 -100 42 -46 -14 -51 -195 -15 -72 14 -160 25 -207 25 -76 0 -83
-2 -83 -20 0 -46 149 -100 274 -100 73 0 83 -2 96 -22 46 -70 30 -83 -93 -74
-186 13 -405 65 -442 105 -17 20 -16 22 45 80 71 67 73 85 10 95 -53 8 -103
33 -97 49 2 6 34 27 70 47 37 19 67 40 67 46 0 6 -18 24 -40 39 -65 45 -55 60
96 134 100 49 205 119 279 184 36 32 41 34 53 19 6 -9 12 -25 12 -36z m2540
-696 c0 -5 -7 -10 -15 -10 -8 0 -15 5 -15 10 0 6 7 10 15 10 8 0 15 -4 15 -10z
m-1883 -116 c-3 -3 -12 -4 -19 -1 -8 3 -5 6 6 6 11 1 17 -2 13 -5z m1508 -359
c0 -12 -70 -19 -93 -10 -14 5 -14 7 -2 16 19 12 95 7 95 -6z m186 -53 c-26
-52 -94 -132 -112 -132 -4 0 -12 12 -17 28 -6 15 -18 36 -27 47 -16 19 -16 18
-10 -20 9 -57 8 -76 -7 -91 -11 -11 -20 -5 -51 33 -36 44 -41 44 -37 -5 1 -12
-5 -25 -13 -28 -21 -8 -347 102 -347 117 0 6 574 106 623 108 l27 1 -29 -58z
m-717 -85 c16 -12 19 -31 20 -163 1 -144 3 -152 34 -228 79 -192 185 -296 301
-296 39 0 56 6 82 27 85 72 102 250 43 451 -5 19 -3 22 19 22 22 0 26 -5 32
-47 18 -125 121 -302 210 -363 59 -40 117 -53 169 -35 22 8 41 13 42 12 1 -1
36 -63 77 -137 41 -74 85 -153 97 -175 25 -43 392 -715 498 -910 36 -66 87
-160 115 -210 69 -125 105 -195 100 -195 -4 0 -407 268 -608 405 -110 75 -314
212 -1105 743 -151 102 -517 349 -813 551 -500 340 -537 367 -510 374 32 9
817 137 839 137 8 0 14 -7 14 -15 0 -7 5 -38 12 -67 l12 -53 7 50 c12 78 18
95 33 95 9 0 17 -15 21 -38 10 -59 25 -75 26 -27 1 70 9 79 80 91 89 16 132
16 153 1z m940 -177 c28 -58 31 -74 31 -157 0 -50 -2 -94 -5 -96 -3 -3 -20 -2
-39 1 l-34 7 -1 95 c-2 93 -11 123 -64 222 -1 3 10 10 25 16 34 12 43 3 87
-88z m-537 -26 c18 -5 28 -23 49 -88 22 -68 25 -93 21 -155 -3 -40 -9 -77 -14
-81 -4 -4 -24 -5 -44 -3 l-36 5 5 97 c4 91 -5 148 -34 219 -6 13 16 16 53 6z
m-1689 -28 c133 -87 866 -595 869 -602 1 -5 -41 -33 -95 -63 -146 -81 -401
-253 -536 -361 -138 -110 -316 -291 -426 -433 -70 -89 -76 -95 -95 -83 -20 13
-20 25 -22 717 l-3 704 123 72 c67 39 128 72 135 72 7 1 29 -10 50 -23z m-272
-11 c-23 -17 -36 -19 -36 -6 0 5 8 12 18 14 32 9 37 6 18 -8z m242 -1570 c23
-71 53 -173 68 -225 15 -52 29 -101 32 -108 3 -8 -15 1 -40 20 -41 30 -44 35
-31 53 19 29 16 88 -6 117 -11 13 -60 46 -110 73 -56 29 -88 52 -84 59 25 43
119 154 124 148 4 -4 25 -65 47 -137z m-310 39 c48 -41 132 -100 187 -131 105
-59 135 -80 135 -96 0 -5 -18 -26 -41 -47 l-41 -37 23 -17 c13 -9 46 -31 74
-48 47 -29 48 -31 30 -45 -11 -7 -44 -21 -72 -29 -35 -10 -53 -21 -53 -31 0
-9 23 -40 51 -70 28 -29 49 -59 47 -66 -7 -22 -111 -66 -203 -87 -49 -11 -136
-23 -192 -27 -117 -7 -130 1 -96 59 19 33 20 33 114 38 96 6 170 32 213 76 50
49 -66 58 -239 19 -124 -28 -195 -32 -195 -12 0 39 113 91 264 123 121 25 176
43 176 59 0 21 -32 19 -152 -10 -57 -14 -130 -28 -164 -31 -54 -6 -63 -4 -89
18 -18 16 -26 31 -22 41 13 35 56 49 229 70 136 17 173 25 176 37 2 10 -33 40
-98 85 -107 73 -156 120 -166 160 -6 25 2 75 12 75 3 0 44 -34 92 -76z m470
-594 c82 -320 117 -534 93 -578 -7 -14 -21 -22 -37 -22 -66 0 -243 130 -413
303 -82 84 -93 107 -47 107 39 0 189 42 238 66 83 42 96 84 49 155 -29 42 -31
59 -9 59 25 0 68 42 68 68 1 47 16 6 58 -158z"/>
<path d="M5247 14023 c11 -31 15 -34 29 -22 11 9 20 8 39 -5 28 -19 30 -17 13
19 -9 20 -18 25 -49 25 -32 0 -37 -3 -32 -17z"/>
<path d="M5450 14019 c7 -11 14 -18 17 -15 8 8 -5 36 -17 36 -7 0 -7 -6 0 -21z"/>
<path d="M5183 13970 c0 -25 2 -35 4 -22 2 12 2 32 0 45 -2 12 -4 2 -4 -23z"/>
<path d="M5343 13955 c3 -11 13 -58 23 -105 10 -51 25 -94 37 -107 23 -26 36
-139 37 -334 0 -100 -3 -118 -18 -132 -10 -10 -29 -17 -41 -17 -17 0 -21 -5
-17 -17 2 -10 7 -47 11 -83 15 -153 52 -296 72 -276 3 3 0 13 -8 22 -8 9 -17
44 -21 78 -3 34 -12 101 -19 150 l-13 89 40 33 c21 18 42 30 46 26 3 -4 13
-38 22 -77 l16 -70 -5 60 c-3 33 -8 170 -11 305 -4 135 -10 292 -14 350 -6 96
-7 99 -9 34 0 -39 -4 -85 -7 -102 l-6 -30 -32 17 c-27 16 -33 28 -53 105 -12
48 -25 91 -29 94 -3 4 -4 -2 -1 -13z"/>
<path d="M5290 13925 c0 -52 105 -423 117 -411 8 8 -36 201 -68 301 -27 84
-49 133 -49 110z"/>
<path d="M5204 13844 c3 -9 6 -18 6 -20 0 -2 11 -4 25 -4 35 0 31 16 -6 29
-27 9 -30 8 -25 -5z"/>
<path d="M5265 13820 c-9 -14 4 -52 16 -45 12 8 12 42 0 50 -5 3 -12 1 -16 -5z"/>
<path d="M5266 13663 c27 -111 132 -363 134 -319 0 10 -16 65 -34 121 -47 138
-121 286 -100 198z"/>
<path d="M5330 13305 c0 -26 4 -35 16 -35 12 0 15 6 10 23 -3 12 -6 28 -6 35
0 6 -4 12 -10 12 -5 0 -10 -16 -10 -35z"/>
<path d="M5512 12990 c0 -14 2 -19 5 -12 2 6 2 18 0 25 -3 6 -5 1 -5 -13z"/>
<path d="M5500 12890 c0 -5 5 -10 10 -10 6 0 10 5 10 10 0 6 -4 10 -10 10 -5
0 -10 -4 -10 -10z"/>
<path d="M5889 13994 c-10 -13 -10 -23 4 -62 9 -26 20 -69 23 -97 4 -27 19
-77 34 -110 15 -33 35 -82 43 -110 9 -27 16 -42 16 -32 1 24 -25 109 -51 167
-32 70 -62 228 -48 246 7 8 8 14 2 14 -5 0 -15 -7 -23 -16z"/>
<path d="M5850 13885 c0 -65 98 -415 99 -355 1 37 -34 193 -64 288 -25 79 -35
98 -35 67z"/>
<path d="M6072 13755 c0 -16 2 -22 5 -12 2 9 2 23 0 30 -3 6 -5 -1 -5 -18z"/>
<path d="M5824 13605 c3 -16 10 -59 16 -93 14 -78 49 -196 57 -188 9 8 -16
151 -39 226 -21 70 -44 107 -34 55z"/>
<path d="M6010 13526 c0 -14 5 -28 10 -31 6 -3 10 5 10 19 0 14 -4 28 -10 31
-6 3 -10 -5 -10 -19z"/>
<path d="M5952 13447 c-6 -7 -13 -44 -15 -84 -5 -70 -19 -113 -37 -113 -14 0
-37 50 -45 100 l-7 44 -22 -39 c-20 -38 -21 -52 -18 -250 2 -183 4 -212 19
-222 9 -7 24 -13 32 -12 10 0 7 4 -6 9 -13 5 -23 17 -24 27 -8 226 -8 403 1
408 6 3 13 -2 16 -12 34 -110 86 -87 107 47 10 69 19 85 31 55 8 -23 26 -18
26 8 0 40 -36 61 -58 34z"/>
<path d="M5967 13147 c-11 -29 -9 -43 4 -30 6 6 9 19 7 29 -3 18 -4 18 -11 1z"/>
<path d="M5955 13052 c-4 -29 -5 -56 -2 -59 7 -7 20 82 15 99 -3 7 -8 -11 -13
-40z"/>
<path d="M5915 12900 c-10 -11 -13 -20 -8 -20 13 0 38 29 31 35 -3 3 -13 -4
-23 -15z"/>
<path d="M4168 11093 c7 -3 16 -2 19 1 4 3 -2 6 -13 5 -11 0 -14 -3 -6 -6z"/>
<path d="M4218 11078 c9 -9 15 -9 24 0 9 9 7 12 -12 12 -19 0 -21 -3 -12 -12z"/>
<path d="M4338 11073 c7 -3 16 -2 19 1 4 3 -2 6 -13 5 -11 0 -14 -3 -6 -6z"/>
<path d="M3977 11045 c-3 -16 0 -24 7 -22 14 4 21 47 8 47 -5 0 -12 -11 -15
-25z"/>
<path d="M4088 11013 c7 -3 16 -2 19 1 4 3 -2 6 -13 5 -11 0 -14 -3 -6 -6z"/>
<path d="M4760 10996 c28 -11 35 -18 35 -40 -1 -14 2 -26 5 -26 10 0 30 23 30
35 0 16 -54 45 -82 44 -19 0 -17 -3 12 -13z"/>
<path d="M4178 10993 c7 -3 16 -2 19 1 4 3 -2 6 -13 5 -11 0 -14 -3 -6 -6z"/>
<path d="M4388 10963 c6 -2 18 -2 25 0 6 3 1 5 -13 5 -14 0 -19 -2 -12 -5z"/>
<path d="M4588 10943 c6 -2 18 -2 25 0 6 3 1 5 -13 5 -14 0 -19 -2 -12 -5z"/>
<path d="M4678 10933 c7 -3 16 -2 19 1 4 3 -2 6 -13 5 -11 0 -14 -3 -6 -6z"/>
<path d="M3320 10440 c-14 -3 -26 -12 -28 -20 -2 -15 53 -90 67 -90 4 0 17 20
28 45 20 44 20 46 3 55 -24 13 -33 13 -25 0 3 -6 3 -20 -1 -32 -6 -21 -7 -21
-20 -3 -10 14 -11 22 -2 32 14 18 9 21 -22 13z"/>
<path d="M3573 10389 c-19 -19 -16 -63 6 -90 19 -24 20 -24 53 -7 18 9 58 25
88 34 78 24 91 38 48 53 -53 19 -181 25 -195 10z"/>
<path d="M3993 10235 c0 -44 2 -61 4 -37 2 23 2 59 0 80 -2 20 -4 1 -4 -43z"/>
<path d="M4352 10218 c-12 -23 -20 -43 -18 -46 3 -2 14 15 26 38 28 55 21 61
-8 8z"/>
<path d="M4305 10140 c-16 -18 -19 -18 -41 -3 -13 8 -24 13 -24 10 0 -2 11
-12 24 -20 22 -15 25 -14 47 9 12 13 20 24 17 24 -3 0 -13 -9 -23 -20z"/>
<path d="M3401 9899 c-15 -43 -14 -50 6 -47 12 2 20 -6 25 -27 5 -20 6 -10 3
29 -5 72 -18 90 -34 45z"/>
<path d="M3876 9783 c-6 -14 -5 -15 5 -6 7 7 10 15 7 18 -3 3 -9 -2 -12 -12z"/>
<path d="M3442 9775 c-1 -11 5 -31 13 -45 9 -16 14 -19 15 -9 0 8 -4 19 -9 25
-5 5 -11 18 -14 29 l-5 20 0 -20z"/>
<path d="M3795 9688 c-47 -48 -84 -66 -145 -68 -89 -4 -101 -1 -131 31 -16 18
-32 30 -35 27 -2 -3 14 -22 36 -42 36 -32 46 -36 94 -36 29 0 68 5 87 11 39
14 114 71 129 100 14 26 11 24 -35 -23z"/>
<path d="M3026 9651 c-21 -23 -76 -113 -100 -166 -11 -22 -22 -42 -26 -45 -4
-3 -19 -30 -33 -60 -40 -83 -84 -160 -101 -179 -9 -10 -16 -25 -16 -34 0 -8
-7 -23 -15 -31 -9 -9 -25 -37 -37 -63 -12 -27 -32 -62 -44 -79 -13 -17 -24
-37 -24 -45 0 -16 39 40 67 96 29 60 84 158 95 172 10 13 43 73 105 193 76
148 115 210 146 235 21 16 27 25 16 25 -9 0 -24 -8 -33 -19z"/>
<path d="M4225 9510 c-3 -5 -1 -10 4 -10 6 0 11 5 11 10 0 6 -2 10 -4 10 -3 0
-8 -4 -11 -10z"/>
<path d="M4140 9460 c-8 -5 -12 -12 -9 -15 4 -3 12 1 19 10 14 17 11 19 -10 5z"/>
<path d="M4079 9413 c-13 -15 -12 -15 9 -4 23 12 28 21 13 21 -5 0 -15 -7 -22
-17z"/>
<path d="M3823 9244 c-29 -19 -53 -37 -53 -39 0 -6 59 31 90 55 40 31 20 23
-37 -16z"/>
<path d="M3680 9149 c-22 -18 -22 -19 -3 -10 12 6 25 16 28 21 9 15 3 12 -25
-11z"/>
<path d="M3525 9050 c-3 -6 1 -7 9 -4 18 7 21 14 7 14 -6 0 -13 -4 -16 -10z"/>
<path d="M3445 8990 c-3 -6 1 -7 9 -4 18 7 21 14 7 14 -6 0 -13 -4 -16 -10z"/>
<path d="M3410 8969 c0 -5 5 -7 10 -4 6 3 10 8 10 11 0 2 -4 4 -10 4 -5 0 -10
-5 -10 -11z"/>
<path d="M3370 8940 c-9 -6 -10 -10 -3 -10 6 0 15 5 18 10 8 12 4 12 -15 0z"/>
<path d="M2598 8893 c-16 -18 -51 -94 -46 -99 2 -1 18 24 35 57 34 62 36 70
11 42z"/>
<path d="M2534 8772 c-13 -8 -48 -81 -43 -87 3 -2 17 18 32 46 29 50 30 54 11
41z"/>
<path d="M3050 8730 c-9 -6 -10 -10 -3 -10 6 0 15 5 18 10 8 12 4 12 -15 0z"/>
<path d="M2468 8653 c-9 -10 -26 -38 -38 -63 -12 -25 -27 -51 -33 -58 -18 -22
-57 -113 -46 -106 6 3 18 23 26 43 8 20 23 47 32 61 26 37 83 140 78 140 -2 0
-11 -8 -19 -17z"/>
<path d="M2854 8598 c-41 -30 -52 -42 -29 -30 26 15 72 51 64 52 -4 0 -19 -10
-35 -22z"/>
<path d="M2303 8363 c-13 -24 -18 -41 -13 -38 13 8 42 64 38 74 -2 4 -13 -12
-25 -36z"/>
<path d="M2500 8370 c-8 -5 -12 -11 -9 -14 2 -3 11 -1 19 4 8 5 12 11 9 14 -2
3 -11 1 -19 -4z"/>
<path d="M2430 8319 c-25 -16 -55 -33 -67 -38 -11 -5 -24 -14 -27 -20 -12 -19
68 23 143 76 2 2 2 5 0 7 -2 2 -24 -10 -49 -25z"/>
<path d="M2258 8278 c-22 -44 -31 -88 -18 -88 5 0 10 7 10 15 0 8 6 15 13 15
7 0 12 16 13 45 1 25 1 45 0 45 -1 0 -9 -15 -18 -32z"/>
<path d="M3035 10118 c-3 -8 -7 -54 -8 -103 -2 -78 0 -90 16 -93 15 -3 17 7
17 97 0 91 -11 135 -25 99z"/>
<path d="M3526 9945 c-8 -40 2 -125 14 -125 19 0 31 57 21 99 -13 60 -27 70
-35 26z"/>
<path d="M7962 7670 c-41 -10 -66 -30 -36 -30 11 0 34 -13 51 -29 l31 -28 31
33 c17 18 31 34 31 37 0 5 -59 28 -69 26 -3 -1 -21 -5 -39 -9z"/>
<path d="M7633 7613 c-24 -8 -43 -18 -43 -23 0 -11 51 -30 118 -45 48 -10 54
-10 63 6 13 25 11 33 -4 21 -17 -15 -72 0 -72 19 0 8 14 16 35 19 33 5 34 6
10 13 -35 10 -59 8 -107 -10z"/>
<path d="M7225 7540 c-30 -12 -49 -37 -60 -83 -9 -34 -18 -45 -55 -64 -48 -24
-43 -30 9 -12 30 11 61 52 61 82 0 21 50 67 71 67 11 0 19 5 19 10 0 12 -17
12 -45 0z"/>
<path d="M6915 7501 c-15 -13 -117 -31 -255 -46 -227 -25 -400 -71 -400 -108
0 -6 10 -1 23 10 23 21 81 37 177 49 30 3 66 11 80 16 14 6 70 14 125 18 110
9 209 26 240 43 11 6 34 14 50 18 l30 7 -30 1 c-17 1 -35 -3 -40 -8z"/>
<path d="M6340 7298 c22 -22 97 -65 83 -47 -6 8 -31 25 -55 38 -24 13 -36 17
-28 9z"/>
<path d="M6440 7238 c0 -3 27 -24 60 -47 33 -23 60 -38 60 -33 0 4 -17 18 -37
30 -21 12 -48 30 -60 38 -13 9 -23 14 -23 12z"/>
<path d="M7937 7134 c-37 -184 -102 -272 -202 -275 -26 -1 -32 -3 -16 -6 91
-17 172 56 212 190 7 26 19 47 26 47 16 0 16 18 -1 49 l-13 24 -6 -29z"/>
<path d="M6642 7094 c9 -10 32 -28 50 -38 39 -22 29 -11 -27 29 -23 17 -33 21
-23 9z"/>
<path d="M6740 7026 c0 -3 9 -10 20 -16 11 -6 20 -8 20 -6 0 3 -9 10 -20 16
-11 6 -20 8 -20 6z"/>
<path d="M6790 6997 c0 -4 105 -75 225 -151 33 -21 71 -48 85 -60 25 -21 25
-21 7 0 -18 22 -67 56 -207 146 -107 68 -110 70 -110 65z"/>
<path d="M7130 6766 c0 -3 9 -10 20 -16 11 -6 20 -8 20 -6 0 3 -9 10 -20 16
-11 6 -20 8 -20 6z"/>
<path d="M7190 6725 c0 -2 10 -10 23 -16 20 -11 21 -11 8 4 -13 16 -31 23 -31
12z"/>
<path d="M7269 6676 c13 -16 51 -41 51 -33 0 2 -15 14 -32 27 -21 15 -28 17
-19 6z"/>
<path d="M7345 6621 c19 -22 55 -46 55 -38 0 3 -17 17 -37 33 -31 23 -34 24
-18 5z"/>
<path d="M7430 6560 c14 -11 34 -25 45 -31 14 -7 12 -4 -5 11 -14 11 -34 25
-45 31 -14 7 -12 4 5 -11z"/>
<path d="M7550 6487 c0 -2 27 -23 60 -46 33 -23 60 -40 60 -38 0 3 -21 20 -47
39 -58 41 -73 50 -73 45z"/>
<path d="M7705 6380 c4 -6 32 -27 63 -48 104 -68 99 -60 -15 26 -44 33 -59 40
-48 22z"/>
<path d="M7860 6277 c0 -3 37 -29 83 -59 102 -68 107 -70 107 -64 0 3 -37 29
-82 59 -103 66 -108 69 -108 64z"/>
<path d="M8069 6136 c13 -16 51 -41 51 -33 0 2 -15 14 -32 27 -21 15 -28 17
-19 6z"/>
<path d="M8155 6075 c17 -13 34 -24 39 -25 6 0 -5 11 -24 25 -44 32 -54 32
-15 0z"/>
<path d="M8230 6026 c0 -2 7 -9 15 -16 9 -7 15 -8 15 -2 0 5 -7 12 -15 16 -8
3 -15 4 -15 2z"/>
<path d="M8350 5936 c0 -2 7 -7 16 -10 8 -3 12 -2 9 4 -6 10 -25 14 -25 6z"/>
<path d="M8430 5886 c0 -2 12 -12 28 -21 l27 -18 -19 21 c-17 20 -36 29 -36
18z"/>
<path d="M8490 5846 c0 -2 12 -12 28 -21 l27 -18 -19 21 c-17 20 -36 29 -36
18z"/>
<path d="M8550 5806 c0 -2 11 -11 25 -20 14 -9 25 -13 25 -8 0 5 -11 14 -25
20 -14 6 -25 10 -25 8z"/>
<path d="M8610 5766 c0 -3 9 -10 20 -16 11 -6 20 -8 20 -6 0 3 -9 10 -20 16
-11 6 -20 8 -20 6z"/>
<path d="M8698 5708 c18 -13 68 -48 110 -78 99 -72 111 -79 94 -58 -15 19
-217 158 -229 158 -4 0 7 -10 25 -22z"/>
<path d="M8920 5555 c0 -1 11 -10 25 -19 19 -13 23 -13 19 -2 -4 12 -44 31
-44 21z"/>
<path d="M9010 5497 c19 -14 37 -23 39 -21 8 7 -23 32 -49 39 -21 6 -19 3 10
-18z"/>
<path d="M9070 5470 c-13 -8 -13 -10 2 -10 9 0 20 5 23 10 8 13 -5 13 -25 0z"/>
<path d="M9110 5430 c0 -5 7 -10 15 -10 8 0 15 5 15 10 0 6 -7 10 -15 10 -8 0
-15 -4 -15 -10z"/>
<path d="M8308 7278 c-5 -50 0 -80 13 -72 12 7 12 114 0 114 -5 0 -11 -19 -13
-42z"/>
<path d="M5979 7303 l-24 -28 25 22 c14 12 43 23 65 26 l40 4 -41 1 c-33 2
-45 -3 -65 -25z"/>
<path d="M6100 7306 c0 -2 8 -10 18 -17 15 -13 16 -12 3 4 -13 16 -21 21 -21
13z"/>
<path d="M5889 7251 c-85 -54 -79 -1 -78 -703 1 -343 5 -600 9 -573 4 28 8
306 9 618 1 313 6 579 11 592 5 13 33 40 62 59 63 43 53 48 -13 7z"/>
<path d="M6295 7166 c17 -14 34 -26 39 -26 11 0 11 0 -34 29 l-35 23 30 -26z"/>
<path d="M6384 7105 c11 -8 24 -15 30 -15 5 0 1 7 -10 15 -10 8 -23 14 -29 14
-5 0 -1 -6 9 -14z"/>
<path d="M6640 6930 c0 -5 5 -10 11 -10 5 0 7 5 4 10 -3 6 -8 10 -11 10 -2 0
-4 -4 -4 -10z"/>
<path d="M6810 6811 c0 -5 7 -12 16 -15 24 -9 28 -7 14 9 -14 17 -30 20 -30 6z"/>
<path d="M6893 6751 c1 -11 7 -17 14 -14 17 7 17 20 -1 26 -10 4 -14 0 -13
-12z"/>
<path d="M6395 6410 c-3 -6 1 -7 9 -4 18 7 21 14 7 14 -6 0 -13 -4 -16 -10z"/>
<path d="M5823 5890 c4 -14 7 -31 7 -37 0 -7 5 -13 10 -13 16 0 11 40 -7 58
-16 16 -16 15 -10 -8z"/>
<path d="M5950 5792 c0 -5 9 -17 20 -27 11 -10 20 -24 20 -30 0 -7 7 -18 16
-25 12 -11 18 -11 30 1 12 12 12 19 2 42 -15 31 -88 63 -88 39z"/>
<path d="M5755 5729 c-8 -12 14 -31 30 -26 6 2 10 10 10 18 0 17 -31 24 -40 8z"/>
<path d="M5810 5671 c0 -13 37 -24 50 -16 6 4 8 11 5 16 -8 12 -55 12 -55 0z"/>
<path d="M5942 5598 c6 -18 28 -21 28 -4 0 9 -7 16 -16 16 -9 0 -14 -5 -12
-12z"/>
<path d="M5747 5493 c-39 -10 -1 -23 68 -23 78 0 108 6 99 21 -5 9 -134 11
-167 2z"/>
<path d="M5987 5233 c-41 -6 -90 -52 -76 -70 17 -19 90 -16 119 6 21 17 23 22
12 45 -6 14 -15 25 -19 25 -5 -1 -21 -4 -36 -6z"/>
<path d="M5823 5123 c9 -2 23 -2 30 0 6 3 -1 5 -18 5 -16 0 -22 -2 -12 -5z"/>
<path d="M6140 5239 c0 -5 5 -7 10 -4 6 3 10 8 10 11 0 2 -4 4 -10 4 -5 0 -10
-5 -10 -11z"/>
<path d="M6195 5131 c-3 -5 -19 -12 -36 -16 -16 -4 -44 -20 -60 -36 -16 -16
-36 -29 -44 -29 -9 0 -23 -4 -33 -9 -9 -5 -38 -17 -64 -26 -26 -9 -54 -27 -63
-41 -15 -24 -15 -26 9 -55 15 -17 26 -27 26 -23 0 4 -7 15 -16 25 -9 10 -14
25 -11 34 8 19 66 55 90 55 27 0 86 29 127 62 33 27 92 39 103 21 2 -5 2 -2 0
5 -1 8 -3 20 -3 28 0 16 -16 19 -25 5z"/>
<path d="M6242 5020 c0 -14 2 -19 5 -12 2 6 2 18 0 25 -3 6 -5 1 -5 -13z"/>
<path d="M6252 4960 c0 -14 2 -19 5 -12 2 6 2 18 0 25 -3 6 -5 1 -5 -13z"/>
<path d="M5948 4874 c10 -20 42 -52 42 -42 0 3 -12 18 -26 34 -17 19 -22 22
-16 8z"/>
<path d="M6009 4817 c8 -10 28 -28 45 -40 23 -16 27 -17 17 -4 -8 10 -28 28
-45 40 -23 16 -27 17 -17 4z"/>
<path d="M6090 4748 c37 -43 163 -113 187 -104 21 8 15 25 -7 19 -23 -6 -76
13 -105 37 -21 18 -84 58 -75 48z"/>
<path d="M5798 14643 c7 -3 16 -2 19 1 4 3 -2 6 -13 5 -11 0 -14 -3 -6 -6z"/>
<path d="M5858 14633 c6 -2 18 -2 25 0 6 3 1 5 -13 5 -14 0 -19 -2 -12 -5z"/>
<path d="M5930 14616 c0 -2 20 -11 45 -19 58 -20 123 -66 191 -133 30 -30 54
-53 54 -50 0 12 -76 93 -116 123 -57 44 -174 97 -174 79z"/>
<path d="M5235 14570 c-3 -6 1 -7 9 -4 18 7 21 14 7 14 -6 0 -13 -4 -16 -10z"/>
<path d="M6227 14382 c3 -12 9 -25 14 -28 14 -8 11 10 -6 32 -13 18 -14 18 -8
-4z"/>
<path d="M6265 14305 c9 -22 19 -45 21 -51 7 -15 59 -44 81 -43 10 0 3 5 -16
12 -25 9 -41 24 -58 57 -32 60 -49 75 -28 25z"/>
<path d="M4965 14275 l-30 -25 33 11 c17 6 32 17 32 25 0 18 0 18 -35 -11z"/>
<path d="M4868 14233 c7 -3 16 -2 19 1 4 3 -2 6 -13 5 -11 0 -14 -3 -6 -6z"/>
<path d="M6398 14203 c7 -3 16 -2 19 1 4 3 -2 6 -13 5 -11 0 -14 -3 -6 -6z"/>
<path d="M6440 14204 c0 -4 11 -17 25 -29 20 -19 23 -30 19 -62 -4 -28 -3 -34
5 -23 18 25 12 64 -14 93 -26 27 -35 33 -35 21z"/>
<path d="M4821 14094 c0 -11 3 -14 6 -6 3 7 2 16 -1 19 -3 4 -6 -2 -5 -13z"/>
<path d="M6467 14063 c-4 -3 -7 -13 -7 -22 0 -9 -7 -29 -16 -46 -15 -30 -15
-30 4 -10 11 11 22 35 26 53 6 33 4 37 -7 25z"/>
<path d="M4940 14000 l-25 -7 28 -8 c30 -8 47 0 31 14 -5 4 -20 5 -34 1z"/>
<path d="M6306 13920 c-9 -23 -16 -69 -16 -108 0 -37 -7 -114 -15 -172 -30
-211 -45 -347 -45 -401 0 -30 -6 -92 -14 -139 -14 -80 -27 -186 -26 -202 0 -5
3 -8 8 -8 7 -1 21 94 47 315 13 115 24 200 45 350 5 39 9 109 10 156 0 92 16
196 32 217 6 6 20 12 32 12 44 0 46 17 3 18 -43 2 -45 1 -61 -38z"/>
<path d="M4570 13090 c60 -10 102 -24 136 -46 25 -16 27 -16 16 -2 -19 24
-116 58 -160 57 l-37 -2 45 -7z"/>
<path d="M4485 13080 c-13 -6 -15 -9 -5 -9 8 0 22 4 30 9 18 12 2 12 -25 0z"/>
<path d="M6813 13043 c9 -2 25 -2 35 0 9 3 1 5 -18 5 -19 0 -27 -2 -17 -5z"/>
<path d="M6970 12996 c0 -2 7 -9 15 -16 9 -7 15 -8 15 -2 0 5 -7 12 -15 16 -8
3 -15 4 -15 2z"/>
<path d="M4760 12962 c0 -13 39 -52 52 -52 7 0 -1 14 -17 30 -31 32 -35 35
-35 22z"/>
<path d="M7035 12926 c72 -129 -11 -339 -140 -354 -25 -2 -43 -8 -38 -13 18
-18 100 12 135 49 62 64 78 106 78 202 0 75 -3 90 -25 123 -35 51 -40 47 -10
-7z"/>
<path d="M4341 12914 c0 -11 3 -14 6 -6 3 7 2 16 -1 19 -3 4 -6 -2 -5 -13z"/>
<path d="M4848 12903 c7 -3 16 -2 19 1 4 3 -2 6 -13 5 -11 0 -14 -3 -6 -6z"/>
<path d="M6538 12903 c6 -2 18 -2 25 0 6 3 1 5 -13 5 -14 0 -19 -2 -12 -5z"/>
<path d="M5018 12893 c28 -2 76 -2 105 0 28 2 5 3 -53 3 -58 0 -81 -1 -52 -3z"/>
<path d="M6353 12893 c20 -2 54 -2 75 0 20 2 3 4 -38 4 -41 0 -58 -2 -37 -4z"/>
<path d="M5833 12638 c-9 -15 -7 -3746 3 -3889 5 -82 9 -97 27 -109 20 -12 21
-12 6 11 -14 21 -17 206 -21 1659 -6 1588 -1 2287 16 2323 10 20 -18 25 -31 5z"/>
<path d="M6788 12563 c7 -3 16 -2 19 1 4 3 -2 6 -13 5 -11 0 -14 -3 -6 -6z"/>
<path d="M4838 11813 c7 -3 16 -2 19 1 4 3 -2 6 -13 5 -11 0 -14 -3 -6 -6z"/>
<path d="M4925 11790 c3 -5 14 -10 23 -10 15 0 15 2 2 10 -20 13 -33 13 -25 0z"/>
<path d="M5006 11630 c-4 -63 -6 -126 -4 -140 6 -34 21 176 16 220 -2 19 -7
-17 -12 -80z"/>
<path d="M4315 11699 c-4 -6 -5 -12 -2 -15 2 -3 7 2 10 11 7 17 1 20 -8 4z"/>
<path d="M4987 11305 c-4 -82 -12 -170 -17 -195 -5 -25 -9 -83 -8 -130 l2 -85
7 95 c4 52 12 144 18 204 7 59 10 143 9 185 -2 60 -5 45 -11 -74z"/>
<path d="M3939 11203 c-13 -16 -12 -17 4 -4 16 13 21 21 13 21 -2 0 -10 -8
-17 -17z"/>
<path d="M3880 11138 c-12 -22 -12 -22 6 -6 10 10 15 20 12 24 -4 3 -12 -5
-18 -18z"/>
<path d="M3822 11077 c-29 -28 -40 -33 -105 -38 l-72 -6 76 -1 c75 -2 76 -2
108 34 42 45 36 54 -7 11z"/>
<path d="M3383 11023 c15 -2 37 -2 50 0 12 2 0 4 -28 4 -27 0 -38 -2 -22 -4z"/>
<path d="M3108 11003 c12 -2 30 -2 40 0 9 3 -1 5 -23 4 -22 0 -30 -2 -17 -4z"/>
<path d="M2973 10993 c9 -2 23 -2 30 0 6 3 -1 5 -18 5 -16 0 -22 -2 -12 -5z"/>
<path d="M2803 10973 c9 -2 23 -2 30 0 6 3 -1 5 -18 5 -16 0 -22 -2 -12 -5z"/>
<path d="M2728 10963 c7 -3 16 -2 19 1 4 3 -2 6 -13 5 -11 0 -14 -3 -6 -6z"/>
<path d="M2625 10950 c-28 -7 -28 -8 -5 -9 14 0 32 4 40 9 17 11 8 11 -35 0z"/>
<path d="M2558 10933 c7 -3 16 -2 19 1 4 3 -2 6 -13 5 -11 0 -14 -3 -6 -6z"/>
<path d="M2458 10913 c6 -2 18 -2 25 0 6 3 1 5 -13 5 -14 0 -19 -2 -12 -5z"/>
<path d="M2308 10883 c6 -2 18 -2 25 0 6 3 1 5 -13 5 -14 0 -19 -2 -12 -5z"/>
<path d="M5000 10880 c8 -5 20 -10 25 -10 6 0 3 5 -5 10 -8 5 -19 10 -25 10
-5 0 -3 -5 5 -10z"/>
<path d="M2258 10873 c7 -3 16 -2 19 1 4 3 -2 6 -13 5 -11 0 -14 -3 -6 -6z"/>
<path d="M2178 10853 c7 -3 16 -2 19 1 4 3 -2 6 -13 5 -11 0 -14 -3 -6 -6z"/>
<path d="M2048 10823 c7 -3 16 -2 19 1 4 3 -2 6 -13 5 -11 0 -14 -3 -6 -6z"/>
<path d="M1794 10729 c-3 -6 -2 -15 3 -20 5 -5 9 -1 9 11 0 23 -2 24 -12 9z"/>
<path d="M5470 10710 c-8 -5 -10 -10 -5 -10 6 0 17 5 25 10 8 5 11 10 5 10 -5
0 -17 -5 -25 -10z"/>
<path d="M1955 10661 c3 -6 27 -11 52 -11 57 0 53 5 -11 14 -33 5 -46 4 -41
-3z"/>
<path d="M3096 10425 c-9 -26 -7 -32 5 -12 6 10 9 21 6 23 -2 3 -7 -2 -11 -11z"/>
<path d="M2921 9796 c-1 -42 2 -57 9 -50 8 8 8 27 2 60 l-10 49 -1 -59z"/>
<path d="M2895 9699 c-4 -6 -5 -12 -2 -15 2 -3 7 2 10 11 7 17 1 20 -8 4z"/>
<path d="M2865 9639 c-4 -6 -5 -12 -2 -15 2 -3 7 2 10 11 7 17 1 20 -8 4z"/>
<path d="M2761 9450 c-12 -22 -19 -40 -14 -40 8 1 45 72 39 77 -1 1 -13 -15
-25 -37z"/>
<path d="M4300 9390 c-25 -8 -65 -30 -89 -47 -24 -18 -50 -33 -57 -33 -7 0
-17 -6 -21 -14 -4 -7 -26 -25 -48 -39 -22 -15 -51 -34 -65 -44 -14 -9 -55 -36
-92 -60 -62 -40 -88 -63 -73 -63 3 0 32 19 65 43 32 23 84 58 115 77 32 19 82
54 113 77 32 24 63 43 70 43 6 0 12 4 12 10 0 17 44 34 105 40 53 4 57 6 35
15 -19 8 -36 7 -70 -5z"/>
<path d="M2726 9383 c-6 -14 -5 -15 5 -6 7 7 10 15 7 18 -3 3 -9 -2 -12 -12z"/>
<path d="M6758 9133 c7 -3 16 -2 19 1 4 3 -2 6 -13 5 -11 0 -14 -3 -6 -6z"/>
<path d="M6818 9123 c6 -2 18 -2 25 0 6 3 1 5 -13 5 -14 0 -19 -2 -12 -5z"/>
<path d="M2565 9100 c-10 -11 -16 -22 -13 -25 3 -3 13 6 22 20 20 30 16 32 -9
5z"/>
<path d="M6638 9113 c7 -3 16 -2 19 1 4 3 -2 6 -13 5 -11 0 -14 -3 -6 -6z"/>
<path d="M6530 9090 c-8 -5 -10 -10 -5 -10 6 0 17 5 25 10 8 5 11 10 5 10 -5
0 -17 -5 -25 -10z"/>
<path d="M3772 9050 c-23 -16 -46 -30 -51 -30 -5 0 -14 -7 -22 -16 -16 -19
-146 -104 -159 -104 -6 0 -20 -11 -31 -24 -12 -14 -34 -30 -50 -36 -16 -7 -29
-16 -29 -21 0 -5 -21 -20 -47 -34 -27 -14 -64 -37 -83 -50 -137 -95 -194 -132
-218 -139 -12 -4 -22 -11 -22 -15 0 -8 -94 -71 -155 -105 -16 -9 -57 -37 -90
-61 -33 -25 -73 -52 -88 -61 -15 -8 -36 -22 -45 -30 -9 -9 -89 -63 -177 -120
-88 -58 -169 -112 -180 -119 -72 -51 -126 -85 -134 -85 -5 0 -28 -16 -51 -35
-23 -19 -48 -35 -56 -35 -8 0 -14 -4 -14 -10 0 -15 29 -1 96 47 34 24 64 43
67 43 5 0 195 124 284 185 109 75 234 159 313 211 52 35 129 86 170 114 179
119 272 180 278 180 4 0 18 9 32 20 32 26 165 117 290 200 161 107 209 140
215 150 10 16 0 12 -43 -20z"/>
<path d="M7000 9062 c0 -7 4 -12 8 -12 5 0 14 -10 20 -22 7 -16 11 -18 11 -7
1 9 -8 24 -19 34 -11 10 -20 13 -20 7z"/>
<path d="M6418 9053 c6 -2 18 -2 25 0 6 3 1 5 -13 5 -14 0 -19 -2 -12 -5z"/>
<path d="M2500 8985 c-7 -9 -10 -18 -7 -21 3 -3 10 4 17 15 13 25 8 27 -10 6z"/>
<path d="M7059 8981 c7 -12 31 -45 55 -74 23 -29 48 -61 54 -72 6 -11 12 -15
12 -9 0 7 -19 38 -42 71 -24 33 -48 68 -54 78 -16 28 -39 34 -25 6z"/>
<path d="M6807 8973 c-4 -3 -7 -34 -7 -68 0 -69 -17 -102 -45 -91 -15 5 -16 4
-5 -9 18 -22 28 -19 50 18 14 21 19 42 15 62 -3 17 -1 45 4 63 9 30 3 41 -12
25z"/>
<path d="M6868 8973 c7 -3 16 -2 19 1 4 3 -2 6 -13 5 -11 0 -14 -3 -6 -6z"/>
<path d="M2473 8933 c-3 -10 -8 -22 -11 -27 -3 -5 0 -6 5 -3 11 7 25 47 17 47
-3 0 -7 -8 -11 -17z"/>
<path d="M6477 8932 c-12 -13 -17 -35 -15 -78 l1 -59 6 61 c3 34 12 68 20 77
18 23 8 21 -12 -1z"/>
<path d="M2407 8813 c-4 -3 -7 -11 -7 -17 0 -6 5 -5 12 2 6 6 9 14 7 17 -3 3
-9 2 -12 -2z"/>
<path d="M7205 8783 c10 -16 23 -32 29 -38 7 -5 34 -44 61 -85 28 -41 55 -79
61 -85 5 -5 34 -43 64 -82 29 -40 56 -71 58 -69 5 5 -85 133 -99 142 -5 3 -29
35 -53 72 -24 37 -60 87 -80 111 -20 23 -36 47 -36 52 0 5 -5 9 -11 9 -7 0 -4
-11 6 -27z"/>
<path d="M2375 8754 c-9 -14 -15 -27 -13 -30 2 -2 12 10 22 26 21 37 15 40 -9
4z"/>
<path d="M2333 8675 c-3 -9 -3 -18 -1 -21 3 -3 8 4 11 16 6 23 -1 27 -10 5z"/>
<path d="M6463 8640 c0 -30 2 -43 4 -27 2 15 2 39 0 55 -2 15 -4 2 -4 -28z"/>
<path d="M5932 8586 c28 -34 38 -73 39 -149 1 -40 5 -101 9 -137 7 -53 8 -44
4 44 -2 60 -4 128 -4 151 0 33 -7 49 -32 76 -18 20 -25 26 -16 15z"/>
<path d="M2266 8543 c-6 -14 -5 -15 5 -6 7 7 10 15 7 18 -3 3 -9 -2 -12 -12z"/>
<path d="M6471 8509 c0 -30 4 -63 8 -74 5 -11 6 10 3 50 -6 85 -12 98 -11 24z"/>
<path d="M2245 8509 c-4 -6 -5 -12 -2 -15 2 -3 7 2 10 11 7 17 1 20 -8 4z"/>
<path d="M7250 8500 c0 -5 5 -10 11 -10 5 0 7 5 4 10 -3 6 -8 10 -11 10 -2 0
-4 -4 -4 -10z"/>
<path d="M6837 8443 c18 -2 50 -2 70 0 21 2 7 4 -32 4 -38 0 -55 -2 -38 -4z"/>
<path d="M6645 8431 c-22 -3 -35 -9 -30 -12 9 -6 128 6 150 15 15 6 -74 4
-120 -3z"/>
<path d="M7093 8433 c15 -2 39 -2 55 0 15 2 2 4 -28 4 -30 0 -43 -2 -27 -4z"/>
<path d="M6978 8423 c18 -2 45 -2 60 0 15 2 0 4 -33 4 -33 0 -45 -2 -27 -4z"/>
<path d="M7510 8370 c6 -11 12 -20 14 -20 2 0 2 9 -1 20 -3 11 -9 20 -15 20
-5 0 -4 -9 2 -20z"/>
<path d="M2156 8353 c-6 -14 -5 -15 5 -6 7 7 10 15 7 18 -3 3 -9 -2 -12 -12z"/>
<path d="M7549 8316 c14 -14 30 -26 38 -26 24 0 13 15 -25 33 l-37 19 24 -26z"/>
<path d="M2135 8319 c-4 -6 -5 -12 -2 -15 2 -3 7 2 10 11 7 17 1 20 -8 4z"/>
<path d="M7698 8283 c6 -2 18 -2 25 0 6 3 1 5 -13 5 -14 0 -19 -2 -12 -5z"/>
<path d="M8011 8270 c124 -4 259 -13 300 -19 110 -15 213 -22 169 -12 -90 22
-225 33 -450 36 l-245 3 226 -8z"/>
<path d="M2096 8253 c-6 -14 -5 -15 5 -6 7 7 10 15 7 18 -3 3 -9 -2 -12 -12z"/>
<path d="M6382 8210 c-1 -26 -8 -53 -14 -60 -8 -9 -5 -8 5 1 14 12 17 27 14
60 l-4 44 -1 -45z"/>
<path d="M2077 8223 c-4 -3 -7 -11 -7 -17 0 -6 5 -5 12 2 6 6 9 14 7 17 -3 3
-9 2 -12 -2z"/>
<path d="M5960 8215 c-7 -8 -25 -15 -40 -15 -27 0 -29 -2 -35 -65 -7 -57 -11
-69 -41 -95 -28 -24 -33 -35 -28 -55 3 -14 13 -25 21 -25 11 0 13 7 9 25 -5
20 0 32 22 55 20 19 31 43 35 72 4 34 14 50 44 75 20 17 35 34 32 38 -4 3 -12
-1 -19 -10z"/>
<path d="M8548 8223 c6 -2 18 -2 25 0 6 3 1 5 -13 5 -14 0 -19 -2 -12 -5z"/>
<path d="M8603 8213 c9 -2 25 -2 35 0 9 3 1 5 -18 5 -19 0 -27 -2 -17 -5z"/>
<path d="M8713 8203 c9 -2 23 -2 30 0 6 3 -1 5 -18 5 -16 0 -22 -2 -12 -5z"/>
<path d="M8815 8186 c22 -8 49 -15 60 -15 37 -1 -8 18 -56 23 l-44 6 40 -14z"/>
<path d="M8915 8161 c11 -5 56 -11 100 -15 47 -3 72 -2 60 3 -11 4 -56 11
-100 14 -46 4 -71 3 -60 -2z"/>
<path d="M2020 8112 c-34 -65 -36 -71 -13 -42 21 27 46 81 40 86 -2 2 -14 -18
-27 -44z"/>
<path d="M7185 8140 c-38 -4 -128 -13 -200 -20 -71 -6 -168 -18 -214 -26 -46
-8 -107 -14 -135 -14 -58 0 -155 -23 -189 -44 -12 -8 -49 -22 -82 -31 -33 -9
-82 -27 -110 -40 -27 -12 -68 -26 -89 -29 -21 -4 -49 -14 -60 -22 -12 -7 -55
-22 -96 -33 -102 -26 -163 -54 -183 -84 -13 -20 -16 -55 -18 -182 0 -86 1
-159 4 -161 2 -3 6 64 9 149 3 120 7 159 20 178 20 30 106 73 178 89 30 7 71
20 90 30 19 9 64 25 100 34 36 10 72 24 80 30 8 7 44 21 80 31 36 9 70 21 76
26 22 18 121 37 227 43 59 3 118 11 130 18 12 6 67 14 122 19 330 24 425 33
425 41 0 9 -63 8 -165 -2z"/>
<path d="M6730 8130 c-25 -4 -4 -5 50 -2 52 2 97 6 99 8 7 6 -99 2 -149 -6z"/>
<path d="M8073 8133 c15 -2 39 -2 55 0 15 2 2 4 -28 4 -30 0 -43 -2 -27 -4z"/>
<path d="M9115 8132 c31 -14 103 -25 84 -13 -9 6 -36 13 -60 16 -30 4 -38 3
-24 -3z"/>
<path d="M8208 8123 c7 -3 16 -2 19 1 4 3 -2 6 -13 5 -11 0 -14 -3 -6 -6z"/>
<path d="M9230 8100 c8 -5 29 -9 45 -9 29 1 29 1 5 9 -14 4 -34 8 -45 9 -16 1
-17 -1 -5 -9z"/>
<path d="M8560 8078 c0 -5 18 -8 40 -8 22 0 40 2 40 4 0 2 -18 6 -40 8 -22 2
-40 0 -40 -4z"/>
<path d="M9338 8083 c7 -3 16 -2 19 1 4 3 -2 6 -13 5 -11 0 -14 -3 -6 -6z"/>
<path d="M9390 8070 c8 -5 22 -10 30 -10 13 0 13 1 0 10 -8 5 -22 10 -30 10
-13 0 -13 -1 0 -10z"/>
<path d="M8673 8063 c9 -2 23 -2 30 0 6 3 -1 5 -18 5 -16 0 -22 -2 -12 -5z"/>
<path d="M5348 8022 c-95 -150 -218 -290 -276 -314 -22 -9 -24 -12 -9 -15 10
-3 29 2 42 11 51 33 294 346 268 346 -4 0 -16 -12 -25 -28z"/>
<path d="M9503 8036 c11 -9 17 -27 17 -53 0 -25 -6 -46 -17 -56 -21 -18 -149
-43 -273 -53 -47 -3 -94 -10 -105 -14 -31 -12 128 -1 250 17 94 15 114 21 138
44 19 19 27 38 27 62 0 32 -24 67 -46 67 -5 0 -1 -7 9 -14z"/>
<path d="M8955 7995 c-38 -13 -92 -31 -120 -39 -47 -15 -48 -15 -10 -10 76 11
120 21 157 38 21 9 54 16 75 16 28 0 34 3 23 10 -22 14 -47 11 -125 -15z"/>
<path d="M1962 7960 c0 -19 2 -27 5 -17 2 9 2 25 0 35 -3 9 -5 1 -5 -18z"/>
<path d="M1979 7897 c5 -5 21 -7 37 -5 27 3 26 4 -8 9 -22 3 -34 1 -29 -4z"/>
<path d="M8458 7883 c7 -3 16 -2 19 1 4 3 -2 6 -13 5 -11 0 -14 -3 -6 -6z"/>
<path d="M8325 7860 c-28 -7 -28 -8 -5 -9 14 0 32 4 40 9 17 11 8 11 -35 0z"/>
<path d="M9015 7834 l-50 -13 55 5 c30 3 59 9 65 15 12 12 -8 10 -70 -7z"/>
<path d="M8078 7823 c6 -2 18 -2 25 0 6 3 1 5 -13 5 -14 0 -19 -2 -12 -5z"/>
<path d="M8792 7810 c-34 -4 -65 -9 -68 -12 -7 -8 163 2 206 12 31 7 29 8 -20
8 -30 -1 -83 -4 -118 -8z"/>
<path d="M8640 7778 c-19 -5 -89 -15 -155 -23 -157 -18 -257 -33 -263 -40 -3
-2 14 -28 37 -57 22 -29 59 -76 82 -105 40 -51 46 -67 74 -188 8 -33 18 -71
24 -85 9 -24 10 -23 10 12 1 20 -3 40 -9 43 -5 3 -10 17 -10 31 0 69 -74 215
-127 249 -17 11 -23 25 -23 50 0 32 2 34 58 51 31 9 95 20 142 24 99 8 210 30
210 42 0 9 -3 9 -50 -4z"/>
<path d="M7718 7763 c6 -2 18 -2 25 0 6 3 1 5 -13 5 -14 0 -19 -2 -12 -5z"/>
<path d="M4997 7709 c7 -7 15 -10 18 -7 3 3 -2 9 -12 12 -14 6 -15 5 -6 -5z"/>
<path d="M6968 7643 c6 -2 18 -2 25 0 6 3 1 5 -13 5 -14 0 -19 -2 -12 -5z"/>
<path d="M6628 7583 c7 -3 16 -2 19 1 4 3 -2 6 -13 5 -11 0 -14 -3 -6 -6z"/>
<path d="M6275 7530 c-27 -7 -28 -8 -5 -8 14 0 34 3 45 8 25 11 2 11 -40 0z"/>
<path d="M6098 7493 c7 -3 16 -2 19 1 4 3 -2 6 -13 5 -11 0 -14 -3 -6 -6z"/>
<path d="M8452 7215 c0 -16 2 -22 5 -12 2 9 2 23 0 30 -3 6 -5 -1 -5 -18z"/>
<path d="M8451 7150 c0 -14 -10 -42 -21 -62 -25 -47 -18 -85 26 -155 18 -29
45 -74 59 -100 14 -26 42 -75 61 -108 49 -83 81 -138 124 -220 20 -38 47 -88
60 -110 12 -22 50 -94 84 -160 33 -66 63 -122 66 -125 3 -3 33 -59 67 -125
108 -214 117 -230 129 -245 6 -8 35 -60 64 -115 28 -55 56 -104 60 -110 8 -11
64 -111 88 -160 22 -44 53 -87 59 -81 3 3 -2 16 -10 30 -32 48 -111 192 -171
311 -22 44 -43 82 -46 85 -6 6 -34 60 -158 300 -52 102 -104 199 -116 215 -11
17 -37 62 -56 100 -19 39 -37 72 -40 75 -7 7 -27 43 -65 115 -67 125 -94 174
-152 270 -61 103 -114 199 -119 221 -4 14 -1 51 6 83 7 32 10 66 7 77 -4 15
-5 13 -6 -6z"/>
<path d="M6990 6630 c-14 -11 -29 -20 -35 -20 -5 0 -59 -32 -120 -70 -112 -71
-224 -141 -259 -163 -11 -7 -25 -16 -30 -20 -6 -4 -35 -25 -65 -47 -30 -22
-73 -58 -97 -80 -23 -22 -45 -40 -48 -40 -10 0 -63 -48 -157 -141 -77 -77 -86
-90 -81 -115 l5 -29 11 33 c27 80 285 301 547 469 19 12 48 31 64 43 17 11 59
39 95 62 36 23 81 52 100 64 39 26 112 53 144 55 19 1 18 2 -4 9 -37 12 -43
11 -70 -10z"/>
<path d="M8107 5949 c7 -7 15 -10 18 -7 3 3 -2 9 -12 12 -14 6 -15 5 -6 -5z"/>
<path d="M8160 5916 c0 -2 8 -10 18 -17 15 -13 16 -12 3 4 -13 16 -21 21 -21
13z"/>
<path d="M6121 5834 c0 -11 3 -14 6 -6 3 7 2 16 -1 19 -3 4 -6 -2 -5 -13z"/>
<path d="M6176 5645 c3 -22 10 -44 15 -50 11 -11 3 35 -13 70 -5 13 -6 7 -2
-20z"/>
<path d="M6231 5480 c-1 -19 52 -185 56 -174 2 5 -10 50 -26 99 -16 50 -29 83
-30 75z"/>
<path d="M8997 5349 c7 -7 15 -10 18 -7 3 3 -2 9 -12 12 -14 6 -15 5 -6 -5z"/>
<path d="M9050 5311 c0 -5 7 -12 16 -15 14 -5 15 -4 4 9 -14 17 -20 19 -20 6z"/>
<path d="M6291 5261 c-1 -33 5 -58 36 -148 8 -24 19 -76 23 -115 5 -40 12 -89
15 -108 37 -221 38 -228 25 -275 -8 -29 -25 -56 -48 -76 -23 -20 -29 -30 -17
-28 10 2 33 26 52 53 29 42 33 56 33 112 0 35 -4 83 -10 106 -11 48 -27 147
-41 252 -6 39 -13 75 -18 80 -5 6 -11 27 -15 46 -3 19 -12 58 -20 85 -14 47
-15 48 -15 16z"/>
<path d="M9385 5220 c3 -32 -1 -50 -13 -63 -15 -17 -15 -17 1 -11 23 8 29 41
17 84 -9 34 -10 34 -5 -10z"/>
<path d="M5826 4795 c-3 -10 -1 -15 7 -13 6 1 24 -9 39 -22 51 -47 96 -80 108
-80 7 0 -20 25 -59 56 -39 30 -71 59 -71 65 0 15 -17 10 -24 -6z"/>
<path d="M5814 4390 c3 -212 2 -801 -4 -1310 -8 -839 -8 -926 7 -940 14 -14
14 -13 3 8 -9 19 -9 85 -1 290 20 500 16 2312 -6 2331 -3 3 -3 -167 1 -379z"/>
<path d="M6015 4650 c10 -11 20 -20 23 -20 3 0 -3 9 -13 20 -10 11 -20 20 -23
20 -3 0 3 -9 13 -20z"/>
<path d="M6135 4560 c3 -5 11 -10 16 -10 6 0 7 5 4 10 -3 6 -11 10 -16 10 -6
0 -7 -4 -4 -10z"/>
<path d="M6182 4534 c10 -10 20 -15 24 -12 3 4 -5 12 -18 18 -22 12 -22 12 -6
-6z"/>
<path d="M6008 2012 c3 -37 11 -94 18 -127 l14 -60 -5 63 c-10 121 -18 182
-24 186 -4 3 -5 -25 -3 -62z"/>
<path d="M6042 1795 c0 -16 2 -22 5 -12 2 9 2 23 0 30 -3 6 -5 -1 -5 -18z"/>
<path d="M6057 1653 c5 -106 28 -344 48 -508 22 -187 38 -419 30 -455 -5 -25
-4 -31 5 -25 10 6 11 41 6 149 -11 233 -15 286 -30 406 -31 240 -37 298 -42
400 -3 58 -9 109 -14 113 -4 5 -6 -31 -3 -80z"/>
<path d="M4942 1030 c0 -14 2 -19 5 -12 2 6 2 18 0 25 -3 6 -5 1 -5 -13z"/>
<path d="M4912 825 c0 -16 2 -22 5 -12 2 9 2 23 0 30 -3 6 -5 -1 -5 -18z"/>
<path d="M4900 688 c0 -9 5 -20 10 -23 13 -8 13 5 0 25 -8 13 -10 13 -10 -2z"/>
<path d="M6075 635 c-16 -7 -23 -14 -14 -14 8 -1 24 6 35 14 24 18 18 18 -21
0z"/>
<path d="M5105 610 c3 -5 8 -10 11 -10 2 0 4 5 4 10 0 6 -5 10 -11 10 -5 0 -7
-4 -4 -10z"/>
<path d="M5973 608 c-24 -5 -43 -14 -43 -20 0 -6 7 -7 18 -3 9 4 32 11 50 15
35 9 55 21 31 19 -8 -1 -33 -5 -56 -11z"/>
<path d="M5148 603 c6 -2 18 -2 25 0 6 3 1 5 -13 5 -14 0 -19 -2 -12 -5z"/>
<path d="M5802 578 c-34 -5 -60 -13 -57 -17 4 -8 80 3 140 19 27 7 27 8 5 8
-14 0 -53 -5 -88 -10z"/>
<path d="M5637 548 c15 -7 30 -7 50 0 26 10 24 10 -22 11 -42 0 -46 -2 -28
-11z"/>
</g>
</svg>
